<mxfile host="65bd71144e">
    <diagram id="pA40saV8uhCpi7-kd_TK" name="Page-1">
        <mxGraphModel dx="781" dy="503" grid="1" gridSize="10" guides="1" tooltips="1" connect="1" arrows="1" fold="1" page="1" pageScale="1" pageWidth="850" pageHeight="1100" math="0" shadow="0">
            <root>
                <mxCell id="0"/>
                <mxCell id="1" parent="0"/>
                <mxCell id="2" value="" style="rounded=0;whiteSpace=wrap;html=1;" vertex="1" parent="1">
                    <mxGeometry x="80" y="80" width="500" height="460" as="geometry"/>
                </mxCell>
                <mxCell id="3" value="" style="rounded=1;whiteSpace=wrap;html=1;" vertex="1" parent="1">
                    <mxGeometry x="80" y="80" width="500" height="60" as="geometry"/>
                </mxCell>
                <mxCell id="4" value="Text" style="text;html=1;strokeColor=none;fillColor=none;align=center;verticalAlign=middle;whiteSpace=wrap;rounded=0;" vertex="1" parent="1">
                    <mxGeometry x="100" y="95" width="60" height="30" as="geometry"/>
                </mxCell>
                <mxCell id="5" value="Text" style="text;html=1;strokeColor=none;fillColor=none;align=center;verticalAlign=middle;whiteSpace=wrap;rounded=0;" vertex="1" parent="1">
                    <mxGeometry x="411" y="95" width="60" height="30" as="geometry"/>
                </mxCell>
                <mxCell id="7" value="Text" style="text;html=1;strokeColor=none;fillColor=none;align=center;verticalAlign=middle;whiteSpace=wrap;rounded=0;" vertex="1" parent="1">
                    <mxGeometry x="471" y="95" width="60" height="30" as="geometry"/>
                </mxCell>
                <mxCell id="8" value="" style="triangle;whiteSpace=wrap;html=1;" vertex="1" parent="1">
                    <mxGeometry x="520" y="190" width="40" height="50" as="geometry"/>
                </mxCell>
                <mxCell id="9" value="" style="triangle;whiteSpace=wrap;html=1;rotation=-180;" vertex="1" parent="1">
                    <mxGeometry x="100" y="190" width="40" height="50" as="geometry"/>
                </mxCell>
                <mxCell id="10" value="Text" style="text;html=1;strokeColor=none;fillColor=none;align=center;verticalAlign=middle;whiteSpace=wrap;rounded=0;" vertex="1" parent="1">
                    <mxGeometry x="161" y="270" width="60" height="30" as="geometry"/>
                </mxCell>
                <mxCell id="11" value="Text" style="text;html=1;strokeColor=none;fillColor=none;align=center;verticalAlign=middle;whiteSpace=wrap;rounded=0;" vertex="1" parent="1">
                    <mxGeometry x="221" y="270" width="60" height="30" as="geometry"/>
                </mxCell>
                <mxCell id="12" value="Text" style="text;html=1;strokeColor=none;fillColor=none;align=center;verticalAlign=middle;whiteSpace=wrap;rounded=0;" vertex="1" parent="1">
                    <mxGeometry x="291" y="270" width="60" height="30" as="geometry"/>
                </mxCell>
                <mxCell id="13" value="Text" style="text;html=1;strokeColor=none;fillColor=none;align=center;verticalAlign=middle;whiteSpace=wrap;rounded=0;" vertex="1" parent="1">
                    <mxGeometry x="351" y="270" width="60" height="30" as="geometry"/>
                </mxCell>
                <mxCell id="14" value="" style="rounded=0;whiteSpace=wrap;html=1;" vertex="1" parent="1">
                    <mxGeometry x="100" y="310" width="120" height="110" as="geometry"/>
                </mxCell>
                <mxCell id="15" value="&lt;h1&gt;Heading&lt;/h1&gt;&lt;p&gt;Lorem ipsum dolor sit amet, consectetur adipisicing elit, sed do eiusmod tempor incididunt ut labore et dolore magna aliqua.&lt;/p&gt;" style="text;html=1;strokeColor=none;fillColor=none;spacing=5;spacingTop=-20;whiteSpace=wrap;overflow=hidden;rounded=0;" vertex="1" parent="1">
                    <mxGeometry x="115" y="310" width="90" height="100" as="geometry"/>
                </mxCell>
                <mxCell id="17" value="" style="rounded=0;whiteSpace=wrap;html=1;" vertex="1" parent="1">
                    <mxGeometry x="60" y="650" width="460" height="380" as="geometry"/>
                </mxCell>
                <mxCell id="18" value="" style="rounded=0;whiteSpace=wrap;html=1;" vertex="1" parent="1">
                    <mxGeometry x="60" y="650" width="460" height="60" as="geometry"/>
                </mxCell>
                <mxCell id="20" value="contactus" style="text;html=1;strokeColor=none;fillColor=none;align=center;verticalAlign=middle;whiteSpace=wrap;rounded=0;" vertex="1" parent="1">
                    <mxGeometry x="425" y="665" width="60" height="30" as="geometry"/>
                </mxCell>
                <mxCell id="21" value="about" style="text;html=1;strokeColor=none;fillColor=none;align=center;verticalAlign=middle;whiteSpace=wrap;rounded=0;" vertex="1" parent="1">
                    <mxGeometry x="340" y="665" width="60" height="30" as="geometry"/>
                </mxCell>
                <mxCell id="22" value="" style="rounded=1;whiteSpace=wrap;html=1;" vertex="1" parent="1">
                    <mxGeometry x="50" y="600" width="470" height="40" as="geometry"/>
                </mxCell>
                <mxCell id="23" value="localhost:3000/contact" style="text;html=1;strokeColor=none;fillColor=none;align=center;verticalAlign=middle;whiteSpace=wrap;rounded=0;" vertex="1" parent="1">
                    <mxGeometry x="101" y="600" width="60" height="30" as="geometry"/>
                </mxCell>
                <mxCell id="24" value="&lt;h1&gt;contact&lt;/h1&gt;&lt;p&gt;Lorem ipsum dolor sit amet, consectetur adipisicing elit, sed do eiusmod tempor incididunt ut labore et dolore magna aliqua.&lt;/p&gt;" style="text;html=1;strokeColor=none;fillColor=none;spacing=5;spacingTop=-20;whiteSpace=wrap;overflow=hidden;rounded=0;" vertex="1" parent="1">
                    <mxGeometry x="150" y="740" width="190" height="120" as="geometry"/>
                </mxCell>
            </root>
        </mxGraphModel>
    </diagram>
</mxfile>